P3
5 5
255
123 222 212 21 3 32 55 66 77 99 100 222 250 213 168 
123 255 213 222 121 23 233 32 65 
187 45 99 21 234 212 
254 255 246 254 255 246 254 255 246 254 255 246 254 255 246 
254 255 246 254 255 246 254 255 246 254 255 246 254 255 246 
254 255 255 254 255 255 254 255 255 
254 255 255 254 255 255 
